<?xml version="1.0" encoding="UTF-8"?><svg xmlns="http://www.w3.org/2000/svg" xmlns:xlink="http://www.w3.org/1999/xlink" fill-opacity="1" color-rendering="auto" color-interpolation="auto" text-rendering="auto" stroke="black" stroke-linecap="square" width="1897" stroke-miterlimit="10" shape-rendering="auto" stroke-opacity="1" fill="black" stroke-dasharray="none" font-weight="normal" stroke-width="1" height="1069" font-family="'Dialog'" font-style="normal" stroke-linejoin="miter" font-size="12px" stroke-dashoffset="0" image-rendering="auto">
  <!--Generated by ySVG 2.5-->
  <defs id="genericDefs"/>
  <g>
    <defs id="defs1">
      <clipPath clipPathUnits="userSpaceOnUse" id="clipPath1">
        <path d="M0 0 L1897 0 L1897 1069 L0 1069 L0 0 Z"/>
      </clipPath>
      <clipPath clipPathUnits="userSpaceOnUse" id="clipPath2">
        <path d="M489 -306 L2386 -306 L2386 763 L489 763 L489 -306 Z"/>
      </clipPath>
      <clipPath clipPathUnits="userSpaceOnUse" id="clipPath3">
        <path d="M484.7942 -762.2935 L484.7942 1134.7064 L-584.2058 1134.7064 L-584.2058 -762.2935 L484.7942 -762.2935 Z"/>
      </clipPath>
    </defs>
    <g fill="white" text-rendering="geometricPrecision" shape-rendering="geometricPrecision" transform="translate(-489,306)" stroke="white">
      <rect x="489" width="1897" height="1069" y="-306" clip-path="url(#clipPath2)" stroke="none"/>
    </g>
    <g text-rendering="geometricPrecision" stroke-miterlimit="1.45" shape-rendering="geometricPrecision" transform="matrix(1,0,0,1,-489,306)" stroke-linecap="butt">
      <rect fill="none" x="563.9186" width="98.9943" height="89.0429" y="330.5092" clip-path="url(#clipPath2)"/>
      <text x="592.8806" font-size="28px" y="406.9485" clip-path="url(#clipPath2)" font-family="sans-serif" stroke="none" font-weight="bold" xml:space="preserve">PC</text>
      <text x="582.7595" font-size="18px" y="353.2172" clip-path="url(#clipPath2)" font-family="sans-serif" stroke="none" xml:space="preserve">Enable</text>
      <rect fill="none" x="738.6201" width="209.729" height="139.3182" y="340.3559" clip-path="url(#clipPath2)"/>
      <text x="757.0373" font-size="28px" y="434.4769" clip-path="url(#clipPath2)" font-family="sans-serif" stroke="none" font-weight="bold" xml:space="preserve">Instruction</text>
      <text x="779.8215" font-size="28px" y="467.0706" clip-path="url(#clipPath2)" font-family="sans-serif" stroke="none" font-weight="bold" xml:space="preserve">Memory</text>
      <text x="744.6201" font-size="18px" y="380.7032" clip-path="url(#clipPath2)" font-family="sans-serif" stroke="none" xml:space="preserve">Address</text>
      <text x="855.0385" font-size="18px" y="380.7032" clip-path="url(#clipPath2)" font-family="sans-serif" stroke="none" xml:space="preserve">inst[31:0]</text>
      <rect fill="none" x="1159.4852" width="220.2104" height="270.3464" y="269.5612" clip-path="url(#clipPath2)"/>
      <text x="1256.9828" font-size="28px" y="527.3041" clip-path="url(#clipPath2)" font-family="sans-serif" stroke="none" font-weight="bold" xml:space="preserve">Regfile</text>
      <text x="1165.4852" font-size="18px" y="329.1969" clip-path="url(#clipPath2)" font-family="sans-serif" stroke="none" xml:space="preserve">rs1</text>
      <text x="1165.4852" font-size="18px" y="379.8183" clip-path="url(#clipPath2)" font-family="sans-serif" stroke="none" xml:space="preserve">rs2</text>
      <text x="1165.4852" font-size="18px" y="429.9534" clip-path="url(#clipPath2)" font-family="sans-serif" stroke="none" xml:space="preserve">rd</text>
      <text x="1165.4852" font-size="18px" y="479.7607" clip-path="url(#clipPath2)" font-family="sans-serif" stroke="none" xml:space="preserve">rd_data</text>
      <text x="1211.9078" font-size="18px" y="292.2693" clip-path="url(#clipPath2)" font-family="sans-serif" stroke="none" xml:space="preserve">Write Enable</text>
      <text x="1295.9211" font-size="18px" y="329.1969" clip-path="url(#clipPath2)" font-family="sans-serif" stroke="none" xml:space="preserve">rs1_data</text>
      <text x="1295.9211" font-size="18px" y="379.8183" clip-path="url(#clipPath2)" font-family="sans-serif" stroke="none" xml:space="preserve">rs2_data</text>
      <ellipse rx="49.4972" fill="none" ry="75.1562" clip-path="url(#clipPath2)" cx="1269.5904" cy="118.9211"/>
    </g>
    <g font-size="28px" stroke-linecap="butt" transform="matrix(-0,-1,1,-0,762.2935,484.7942)" text-rendering="geometricPrecision" font-family="sans-serif" shape-rendering="geometricPrecision" font-weight="bold" stroke-miterlimit="1.45">
      <text x="2" xml:space="preserve" y="27.9902" clip-path="url(#clipPath3)" stroke="none">Control</text>
    </g>
    <g text-rendering="geometricPrecision" stroke-miterlimit="1.45" shape-rendering="geometricPrecision" transform="matrix(1,0,0,1,-489,306)" stroke-linecap="butt">
      <ellipse rx="110.1052" fill="none" ry="49.1357" clip-path="url(#clipPath2)" cx="1269.5904" cy="698.3647"/>
      <text x="1185.2555" font-size="28px" y="691.7612" clip-path="url(#clipPath2)" font-family="sans-serif" stroke="none" font-weight="bold" xml:space="preserve">Immediate</text>
      <text x="1189.5758" font-size="28px" y="724.3549" clip-path="url(#clipPath2)" font-family="sans-serif" stroke="none" font-weight="bold" xml:space="preserve">Generator</text>
      <rect fill="none" x="1614.5082" width="160.4" height="158" y="303.8427" clip-path="url(#clipPath2)"/>
    </g>
    <g stroke-linecap="butt" font-size="28px" transform="matrix(1,0,0,1,-489,306)" fill="red" text-rendering="geometricPrecision" font-family="sans-serif" shape-rendering="geometricPrecision" stroke="red" font-weight="bold" stroke-miterlimit="1.45">
      <text x="1663.5841" xml:space="preserve" y="449.2392" clip-path="url(#clipPath2)" stroke="none">ALU</text>
    </g>
    <g font-size="18px" stroke-linecap="butt" transform="matrix(1,0,0,1,-489,306)" text-rendering="geometricPrecision" font-family="sans-serif" shape-rendering="geometricPrecision" stroke-miterlimit="1.45">
      <text x="1620.5082" xml:space="preserve" y="341.9892" clip-path="url(#clipPath2)" stroke="none">A</text>
      <text x="1620.5082" xml:space="preserve" y="392.4273" clip-path="url(#clipPath2)" stroke="none">B</text>
      <text x="1727.0898" xml:space="preserve" y="341.9892" clip-path="url(#clipPath2)" stroke="none">Zero</text>
      <text x="1712.4824" xml:space="preserve" y="385.8407" clip-path="url(#clipPath2)" stroke="none">Result</text>
      <ellipse rx="84.2395" fill="none" ry="49.1357" clip-path="url(#clipPath2)" cx="1694.7082" cy="224.707"/>
      <text x="1663.5841" font-size="28px" y="218.1035" clip-path="url(#clipPath2)" stroke="none" font-weight="bold" xml:space="preserve">ALU</text>
      <text x="1636.8351" font-size="28px" y="250.6972" clip-path="url(#clipPath2)" stroke="none" font-weight="bold" xml:space="preserve">Control</text>
      <ellipse rx="84.2395" fill="none" ry="49.1357" clip-path="url(#clipPath2)" cx="1823.9793" cy="-52.4935"/>
      <text x="1766.1063" font-size="28px" y="-59.097" clip-path="url(#clipPath2)" stroke="none" font-weight="bold" xml:space="preserve">Control</text>
      <text x="1757.288" font-size="28px" y="-26.5032" clip-path="url(#clipPath2)" stroke="none" font-weight="bold" xml:space="preserve">Transfer</text>
      <rect fill="none" x="1903.7679" width="220.2104" height="258.8264" y="296.3856" clip-path="url(#clipPath2)"/>
      <text x="2017.1072" font-size="28px" y="510.0147" clip-path="url(#clipPath2)" stroke="none" font-weight="bold" xml:space="preserve">Data</text>
      <text x="1990.6521" font-size="28px" y="542.6085" clip-path="url(#clipPath2)" stroke="none" font-weight="bold" xml:space="preserve">Memory</text>
      <text x="1909.7679" xml:space="preserve" y="384.4815" clip-path="url(#clipPath2)" stroke="none">Address</text>
      <text x="1909.7679" xml:space="preserve" y="424.907" clip-path="url(#clipPath2)" stroke="none">Write</text>
      <text x="1912.4442" xml:space="preserve" y="445.8601" clip-path="url(#clipPath2)" stroke="none">Data</text>
      <text x="1909.7679" xml:space="preserve" y="489.899" clip-path="url(#clipPath2)" stroke="none">Width</text>
      <text x="2036.4275" xml:space="preserve" y="319.0936" clip-path="url(#clipPath2)" stroke="none">Write</text>
      <text x="2029.9368" xml:space="preserve" y="340.0467" clip-path="url(#clipPath2)" stroke="none">Enable</text>
      <text x="2071.9412" xml:space="preserve" y="418.9055" clip-path="url(#clipPath2)" stroke="none">Read</text>
      <text x="2073.4705" xml:space="preserve" y="439.8587" clip-path="url(#clipPath2)" stroke="none">Data</text>
      <text x="1944.613" xml:space="preserve" y="319.0936" clip-path="url(#clipPath2)" stroke="none">Read</text>
      <text x="1936.9753" xml:space="preserve" y="340.0467" clip-path="url(#clipPath2)" stroke="none">Enable</text>
      <rect fill="none" x="766.6763" width="76.6371" height="75.7714" y="-257.4106" clip-path="url(#clipPath2)"/>
      <text x="793.2643" font-size="28px" y="-209.8315" clip-path="url(#clipPath2)" stroke="none" font-weight="bold" xml:space="preserve">+</text>
      <rect fill="none" x="1656.3896" width="76.6371" height="75.7714" y="-177.4006" clip-path="url(#clipPath2)"/>
      <text x="1682.9777" font-size="28px" y="-129.8215" clip-path="url(#clipPath2)" stroke="none" font-weight="bold" xml:space="preserve">+</text>
      <text x="675.2174" xml:space="preserve" y="-231.6413" clip-path="url(#clipPath2)" stroke="none">4</text>
      <ellipse rx="13.5" fill="none" ry="27.5" clip-path="url(#clipPath2)" cx="1434.6484" cy="336.0579"/>
      <text x="1428.9224" xml:space="preserve" y="331.8128" clip-path="url(#clipPath2)" stroke="none">0</text>
      <text x="1428.9224" xml:space="preserve" y="352.7659" clip-path="url(#clipPath2)" stroke="none">1</text>
      <ellipse rx="13.5" fill="none" ry="27.5" clip-path="url(#clipPath2)" cx="1531.3283" cy="386.311"/>
      <text x="1525.6022" xml:space="preserve" y="382.0659" clip-path="url(#clipPath2)" stroke="none">0</text>
      <text x="1525.6022" xml:space="preserve" y="403.019" clip-path="url(#clipPath2)" stroke="none">1</text>
      <ellipse rx="19.2875" fill="none" ry="49.1357" clip-path="url(#clipPath2)" cx="2309.2695" cy="-188.0439"/>
      <text x="2297.8174" xml:space="preserve" y="-213.2421" clip-path="url(#clipPath2)" stroke="none">00</text>
      <text x="2297.8174" xml:space="preserve" y="-192.289" clip-path="url(#clipPath2)" stroke="none">01</text>
      <text x="2297.8174" xml:space="preserve" y="-171.3359" clip-path="url(#clipPath2)" stroke="none">10</text>
      <text x="2297.8174" xml:space="preserve" y="-150.3828" clip-path="url(#clipPath2)" stroke="none">11</text>
      <ellipse rx="30.625" fill="none" ry="103.5454" clip-path="url(#clipPath2)" cx="2309.2695" cy="431.5588"/>
      <text x="2292.0913" xml:space="preserve" y="364.4543" clip-path="url(#clipPath2)" stroke="none">000</text>
      <text x="2292.0913" xml:space="preserve" y="385.4074" clip-path="url(#clipPath2)" stroke="none">001</text>
      <text x="2292.0913" xml:space="preserve" y="406.3606" clip-path="url(#clipPath2)" stroke="none">010</text>
      <text x="2292.0913" xml:space="preserve" y="427.3137" clip-path="url(#clipPath2)" stroke="none">011</text>
      <text x="2292.0913" xml:space="preserve" y="448.2668" clip-path="url(#clipPath2)" stroke="none">100</text>
      <text x="2292.0913" xml:space="preserve" y="469.2199" clip-path="url(#clipPath2)" stroke="none">101</text>
      <text x="2292.0913" xml:space="preserve" y="490.1731" clip-path="url(#clipPath2)" stroke="none">110</text>
      <text x="2292.0913" xml:space="preserve" y="511.1262" clip-path="url(#clipPath2)" stroke="none">111</text>
      <path fill="none" d="M662.9129 375.0306 L730.5983 375.0306" clip-path="url(#clipPath2)"/>
      <path d="M738.5983 375.0306 L726.5983 370.0306 L729.5983 375.0306 L726.5983 380.0306 Z" stroke="none" clip-path="url(#clipPath2)"/>
      <path fill="none" d="M948.3786 374.5953 L982.4753 374.5953 L982.4753 325.3299 L1151.4504 325.3299" clip-path="url(#clipPath2)"/>
      <path d="M1159.4504 325.3299 L1147.4504 320.3299 L1150.4504 325.3299 L1147.4504 330.3299 Z" stroke="none" clip-path="url(#clipPath2)"/>
      <path fill="none" d="M948.3705 374.5953 L1151.4775 374.5953" clip-path="url(#clipPath2)"/>
      <path d="M1159.4775 374.5953 L1147.4775 369.5953 L1150.4775 374.5953 L1147.4775 379.5953 Z" stroke="none" clip-path="url(#clipPath2)"/>
      <path fill="none" d="M949.396 374.5953 L982.4753 374.5953 L982.4753 425.8893 L1151.4506 425.8893" clip-path="url(#clipPath2)"/>
      <path d="M1159.4506 425.8893 L1147.4506 420.8893 L1150.4506 425.8893 L1147.4506 430.8893 Z" stroke="none" clip-path="url(#clipPath2)"/>
      <path fill="none" d="M948.3782 374.3882 L982.4753 374.5953 L982.4753 325.3299 L982.4753 162.2185 L1221.1078 162.2185" clip-path="url(#clipPath2)"/>
      <path d="M1229.1078 162.2185 L1217.1078 157.2185 L1220.1078 162.2185 L1217.1078 167.2185 Z" stroke="none" clip-path="url(#clipPath2)"/>
      <path fill="none" d="M1269.5905 194.0774 L1269.5905 261.5612" clip-path="url(#clipPath2)"/>
      <path d="M1269.5905 269.5612 L1274.5905 257.5612 L1269.5905 260.5612 L1264.5905 257.5612 Z" stroke="none" clip-path="url(#clipPath2)"/>
      <path fill="none" d="M1220.0563 118.9211 L701.1201 118.9211 Q701.1201 113.9211 696.1201 113.9211 Q691.1201 113.9211 691.1201 118.9211 L613.4158 118.9211 L613.4158 322.4833" clip-path="url(#clipPath2)"/>
      <path d="M613.4158 330.4833 L618.4158 318.4833 L613.4158 321.4833 L608.4158 318.4833 Z" stroke="none" clip-path="url(#clipPath2)"/>
      <path fill="none" d="M948.3767 374.5953 L982.4753 374.5953 L982.4753 698.3647 L1151.4852 698.3647" clip-path="url(#clipPath2)"/>
      <path d="M1159.4852 698.3647 L1147.4852 693.3647 L1150.4852 698.3647 L1147.4852 703.3647 Z" stroke="none" clip-path="url(#clipPath2)"/>
      <path fill="none" d="M1319.0875 118.9211 L1477.3706 118.9211 Q1477.3706 113.9211 1482.3706 113.9211 Q1487.3706 113.9211 1487.3706 118.9211 L1694.7081 118.9211 L1694.7081 167.5713" clip-path="url(#clipPath2)"/>
      <path d="M1694.7081 175.5713 L1699.7081 163.5713 L1694.7081 166.5713 L1689.7081 163.5713 Z" stroke="none" clip-path="url(#clipPath2)"/>
      <path fill="none" d="M1694.7081 273.8427 L1694.7081 295.8134" clip-path="url(#clipPath2)"/>
      <path d="M1694.7081 303.8134 L1699.7081 291.8134 L1694.7081 294.8134 L1689.7081 291.8134 Z" stroke="none" clip-path="url(#clipPath2)"/>
      <path fill="none" d="M1319.0875 118.9211 L1477.3706 118.9211 Q1477.3706 113.9211 1482.3706 113.9211 Q1487.3706 113.9211 1487.3706 118.9211 L1694.7081 118.9211 L1694.7081 -52.4935 L1731.7399 -52.4935" clip-path="url(#clipPath2)"/>
      <path d="M1739.7399 -52.4935 L1727.7399 -57.4935 L1730.7399 -52.4935 L1727.7399 -47.4935 Z" stroke="none" clip-path="url(#clipPath2)"/>
      <path fill="none" d="M1774.953 336.0579 L1823.9794 336.0579 L1823.9794 4.6423" clip-path="url(#clipPath2)"/>
      <path d="M1823.9794 -3.3577 L1818.9794 8.6423 L1823.9794 5.6423 L1828.9794 8.6423 Z" stroke="none" clip-path="url(#clipPath2)"/>
      <path fill="none" d="M1774.9205 378.4882 L1895.7668 378.4882" clip-path="url(#clipPath2)"/>
      <path d="M1903.7668 378.4882 L1891.7668 373.4882 L1894.7668 378.4882 L1891.7668 383.4882 Z" stroke="none" clip-path="url(#clipPath2)"/>
      <path fill="none" d="M1319.0875 118.9211 L1477.3706 118.9211 Q1477.3706 113.9211 1482.3706 113.9211 Q1487.3706 113.9211 1487.3706 118.9211 L1818.9794 118.9211 Q1818.9794 113.9211 1823.9794 113.9211 Q1828.9794 113.9211 1828.9794 118.9211 L1968.3347 118.9211 L1968.3347 288.3846" clip-path="url(#clipPath2)"/>
      <path d="M1968.3347 296.3846 L1973.3347 284.3846 L1968.3347 287.3846 L1963.3347 284.3846 Z" stroke="none" clip-path="url(#clipPath2)"/>
      <path fill="none" d="M1319.0875 118.9211 L1477.3706 118.9211 Q1477.3706 113.9211 1482.3706 113.9211 Q1487.3706 113.9211 1487.3706 118.9211 L1818.9794 118.9211 Q1818.9794 113.9211 1823.9794 113.9211 Q1828.9794 113.9211 1828.9794 118.9211 L2061.8083 118.9211 L2061.8083 288.3783" clip-path="url(#clipPath2)"/>
      <path d="M2061.8083 296.3783 L2066.8083 284.3783 L2061.8083 287.3783 L2056.8083 284.3783 Z" stroke="none" clip-path="url(#clipPath2)"/>
      <path fill="none" d="M1379.6952 374.8297 L1396.7572 374.8297 Q1396.7572 369.8297 1401.7572 369.8297 Q1406.7572 369.8297 1406.7572 374.8297 L1439.3268 374.8297 L1439.3268 489.8704 L1477.3706 489.8704 Q1477.3706 484.8704 1482.3706 484.8704 Q1487.3706 484.8704 1487.3706 489.8704 L1806.0376 489.8704 L1806.0376 428.8127 L1895.7473 428.8127" clip-path="url(#clipPath2)"/>
      <path d="M1903.7473 428.8127 L1891.7473 423.8127 L1894.7473 428.8127 L1891.7473 433.8127 Z" stroke="none" clip-path="url(#clipPath2)"/>
      <path fill="none" d="M948.3767 374.3793 L982.4753 374.5953 L982.4753 628.5084 L1477.3706 628.5084 Q1477.3706 623.5084 1482.3706 623.5084 Q1487.3706 623.5084 1487.3706 628.5084 L1833.5172 628.5084 L1833.5172 484.9236 L1895.7385 484.9236" clip-path="url(#clipPath2)"/>
      <path d="M1903.7385 484.9236 L1891.7385 479.9236 L1894.7385 484.9236 L1891.7385 489.9236 Z" stroke="none" clip-path="url(#clipPath2)"/>
      <path fill="none" d="M662.9129 375.0306 L696.1201 375.0306 L696.1201 -202.8728 L758.6641 -202.8728" clip-path="url(#clipPath2)"/>
      <path d="M766.6641 -202.8728 L754.6641 -207.8728 L757.6641 -202.8728 L754.6641 -197.8728 Z" stroke="none" clip-path="url(#clipPath2)"/>
      <path fill="none" d="M662.9129 375.0306 L696.1201 375.0306 L696.1201 -156.5352 L1648.3705 -156.5352" clip-path="url(#clipPath2)"/>
      <path d="M1656.3705 -156.5352 L1644.3705 -161.5352 L1647.3705 -156.5352 L1644.3705 -151.5352 Z" stroke="none" clip-path="url(#clipPath2)"/>
      <path fill="none" d="M1379.6956 698.3647 L1482.3706 698.3647 L1482.3706 -125.9369 L1648.3832 -125.9369" clip-path="url(#clipPath2)"/>
      <path d="M1656.3832 -125.9369 L1644.3832 -130.937 L1647.3832 -125.9369 L1644.3832 -120.9369 Z" stroke="none" clip-path="url(#clipPath2)"/>
      <path fill="none" d="M695.9435 -237.8728 L758.644 -237.8728" clip-path="url(#clipPath2)"/>
      <path d="M766.644 -237.8728 L754.644 -242.8728 L757.644 -237.8728 L754.644 -232.8728 Z" stroke="none" clip-path="url(#clipPath2)"/>
      <path fill="none" d="M1379.7062 324.0707 L1414.4745 324.0707" clip-path="url(#clipPath2)"/>
      <path d="M1422.4745 324.0707 L1410.4745 319.0707 L1413.4745 324.0707 L1410.4745 329.0707 Z" stroke="none" clip-path="url(#clipPath2)"/>
      <path fill="none" d="M1319.0875 118.9211 L1434.6484 118.9211 L1434.6484 300.5579" clip-path="url(#clipPath2)"/>
      <path d="M1434.6484 308.5579 L1439.6484 296.5579 L1434.6484 299.5579 L1429.6484 296.5579 Z" stroke="none" clip-path="url(#clipPath2)"/>
      <path fill="none" d="M662.9129 375.0306 L696.1201 375.0306 L696.1201 562.5624 L977.4753 562.5624 Q977.4753 557.5624 982.4753 557.5624 Q987.4753 557.5624 987.4753 562.5624 L1093.3625 562.5624 Q1093.3625 557.5624 1098.3625 557.5624 Q1103.3625 557.5624 1103.3625 562.5624 L1401.7572 562.5624 L1401.7572 346.4448 L1414.1323 346.4448" clip-path="url(#clipPath2)"/>
      <path d="M1422.1323 346.4448 L1410.1323 341.4448 L1413.1323 346.4448 L1410.1323 351.4448 Z" stroke="none" clip-path="url(#clipPath2)"/>
      <path fill="none" d="M1448.1484 336.0579 L1477.3706 336.0579 Q1477.3706 331.0579 1482.3706 331.0579 Q1487.3706 331.0579 1487.3706 336.0579 L1526.3282 336.0579 Q1526.3282 331.0579 1531.3282 331.0579 Q1536.3282 331.0579 1536.3282 336.0579 L1606.4856 336.0579" clip-path="url(#clipPath2)"/>
      <path d="M1614.4856 336.0579 L1602.4856 331.0579 L1605.4856 336.0579 L1602.4856 341.0579 Z" stroke="none" clip-path="url(#clipPath2)"/>
      <path fill="none" d="M1379.7162 374.7896 L1396.7572 374.7896 Q1396.7572 369.7896 1401.7572 369.7896 Q1406.7572 369.7896 1406.7572 374.7896 L1477.3706 374.7896 Q1477.3706 369.7896 1482.3706 369.7896 Q1487.3706 369.7896 1487.3706 374.7896 L1511.0621 374.7896" clip-path="url(#clipPath2)"/>
      <path d="M1519.0621 374.7896 L1507.0621 369.7896 L1510.0621 374.7896 L1507.0621 379.7896 Z" stroke="none" clip-path="url(#clipPath2)"/>
      <path fill="none" d="M1319.0875 118.9211 L1477.3706 118.9211 Q1477.3706 113.9211 1482.3706 113.9211 Q1487.3706 113.9211 1487.3706 118.9211 L1531.3282 118.9211 L1531.3282 350.811" clip-path="url(#clipPath2)"/>
      <path d="M1531.3282 358.811 L1536.3282 346.811 L1531.3282 349.811 L1526.3282 346.811 Z" stroke="none" clip-path="url(#clipPath2)"/>
      <path fill="none" d="M1379.6956 698.3647 L1482.3706 698.3647 L1482.3706 397.5287 L1510.9888 397.5287" clip-path="url(#clipPath2)"/>
      <path d="M1518.9888 397.5287 L1506.9888 392.5287 L1509.9888 397.5287 L1506.9888 402.5287 Z" stroke="none" clip-path="url(#clipPath2)"/>
      <path fill="none" d="M1544.8282 386.311 L1606.5077 386.311" clip-path="url(#clipPath2)"/>
      <path d="M1614.5077 386.311 L1602.5077 381.311 L1605.5077 386.311 L1602.5077 391.311 Z" stroke="none" clip-path="url(#clipPath2)"/>
      <path fill="none" d="M843.3134 -219.5249 L1818.9794 -219.5249 Q1818.9794 -224.5249 1823.9794 -224.5249 Q1828.9794 -224.5249 1828.9794 -219.5249 L2286.4385 -219.5249" clip-path="url(#clipPath2)"/>
      <path d="M2294.4385 -219.5249 L2282.4385 -224.5249 L2285.4385 -219.5249 L2282.4385 -214.5249 Z" stroke="none" clip-path="url(#clipPath2)"/>
      <path fill="none" d="M1733.0267 -139.5149 L1819.292 -171.5403 Q1817.5518 -176.2277 1822.2393 -177.9678 Q1826.9266 -179.708 1828.6667 -175.0206 L1891.2457 -198.2526 L2184.2927 -198.2526 Q2184.2927 -203.2526 2189.2927 -203.2526 Q2194.2927 -203.2526 2194.2927 -198.2526 L2282.3662 -198.2526" clip-path="url(#clipPath2)"/>
      <path d="M2290.3662 -198.2526 L2278.3662 -203.2526 L2281.3662 -198.2526 L2278.3662 -193.2526 Z" stroke="none" clip-path="url(#clipPath2)"/>
      <path fill="none" d="M1774.938 378.3124 L1862.3661 378.4566 L1862.3661 250.56 L1963.3347 250.56 Q1963.3347 245.56 1968.3347 245.56 Q1973.3347 245.56 1973.3347 250.56 L2056.8083 250.56 Q2056.8083 245.56 2061.8083 245.56 Q2066.8083 245.56 2066.8083 250.56 L2150 250.56 L2150 -177.0279 L2184.2927 -177.0279 Q2184.2927 -182.0279 2189.2927 -182.0279 Q2194.2927 -182.0279 2194.2927 -177.0279 L2282.4663 -177.0279" clip-path="url(#clipPath2)"/>
      <path d="M2290.4663 -177.0279 L2278.4663 -182.0279 L2281.4663 -177.0279 L2278.4663 -172.0279 Z" stroke="none" clip-path="url(#clipPath2)"/>
      <path fill="none" d="M1823.9794 -101.6292 L1823.9794 -258.9215 L2309.2695 -258.9215 L2309.2695 -245.1796" clip-path="url(#clipPath2)"/>
      <path d="M2309.2695 -237.1796 L2314.2695 -249.1796 L2309.2695 -246.1796 L2304.2695 -249.1796 Z" stroke="none" clip-path="url(#clipPath2)"/>
      <path fill="none" d="M2328.5571 -188.0439 L2370 -188.0439 L2370 -290 L504.1332 -290.3068 L504.1332 375.0306 L555.8894 375.0306" clip-path="url(#clipPath2)"/>
      <path d="M563.8894 375.0306 L551.8894 370.0306 L554.8894 375.0306 L551.8894 380.0306 Z" stroke="none" clip-path="url(#clipPath2)"/>
      <path fill="none" d="M1774.9258 378.4566 L1862.3661 378.4566 L1862.3661 250.56 L1963.3347 250.56 Q1963.3347 245.56 1968.3347 245.56 Q1973.3347 245.56 1973.3347 250.56 L2056.8083 250.56 Q2056.8083 245.56 2061.8083 245.56 Q2066.8083 245.56 2066.8083 250.56 L2150 250.56 L2150 360 L2184.2927 360 Q2184.2927 355 2189.2927 355 Q2194.2927 355 2194.2927 360 L2279.1208 360" clip-path="url(#clipPath2)"/>
      <path d="M2287.1208 360 L2275.1208 355 L2278.1208 360 L2275.1208 365 Z" stroke="none" clip-path="url(#clipPath2)"/>
      <path fill="none" d="M2124.0037 425.7988 L2150 425.7988 L2150 380 L2184.2927 380.006 Q2184.2937 375.006 2189.2937 375.0068 Q2194.2937 375.0077 2194.2927 380.0077 L2274.6799 380.0217" clip-path="url(#clipPath2)"/>
      <path d="M2282.6799 380.0231 L2270.6809 375.021 L2273.6799 380.0215 L2270.679 385.021 Z" stroke="none" clip-path="url(#clipPath2)"/>
      <path fill="none" d="M1379.6956 698.3647 L1482.3706 698.3647 L2189.2927 698.3647 L2189.2927 419.8038 L2270.7991 419.8038" clip-path="url(#clipPath2)"/>
      <path d="M2278.7991 419.8038 L2266.7991 414.8038 L2269.7991 419.8038 L2266.7991 424.8038 Z" stroke="none" clip-path="url(#clipPath2)"/>
      <path fill="none" d="M843.3134 -219.5249 L1818.9794 -219.5249 Q1818.9794 -224.5249 1823.9794 -224.5249 Q1828.9794 -224.5249 1828.9794 -219.5249 L2189.2927 -219.5249 L2189.2927 400.5039 L2272.0159 400.5039" clip-path="url(#clipPath2)"/>
      <path d="M2280.0159 400.5039 L2268.0159 395.5039 L2271.0159 400.5039 L2268.0159 405.5039 Z" stroke="none" clip-path="url(#clipPath2)"/>
      <path fill="none" d="M1319.0875 118.9211 L1477.3706 118.9211 Q1477.3706 113.9211 1482.3706 113.9211 Q1487.3706 113.9211 1487.3706 118.9211 L1818.9794 118.9211 Q1818.9794 113.9211 1823.9794 113.9211 Q1828.9794 113.9211 1828.9794 118.9211 L2145 118.9211 Q2145 113.9211 2150 113.9211 Q2155 113.9211 2155 118.9211 L2184.2927 118.9211 Q2184.2927 113.9211 2189.2927 113.9211 Q2194.2927 113.9211 2194.2927 118.9211 L2309.2695 118.9211 L2309.2695 320.0134" clip-path="url(#clipPath2)"/>
      <path d="M2309.2695 328.0134 L2314.2695 316.0134 L2309.2695 319.0134 L2304.2695 316.0134 Z" stroke="none" clip-path="url(#clipPath2)"/>
      <path fill="none" d="M2339.8945 431.5588 L2370 431.5588 L2370 590.9633 L2194.2927 590.9633 Q2194.2927 585.9633 2189.2927 585.9633 Q2184.2927 585.9633 2184.2927 590.9633 L1838.5172 590.9633 Q1838.5172 585.9633 1833.5172 585.9633 Q1828.5172 585.9633 1828.5172 590.9633 L1487.3706 590.9633 Q1487.3706 585.9633 1482.3706 585.9633 Q1477.3706 585.9633 1477.3706 590.9633 L1098.3625 590.9633 L1098.3625 475.0481 L1151.4695 475.0481" clip-path="url(#clipPath2)"/>
      <path d="M1159.4695 475.0481 L1147.4695 470.0481 L1150.4695 475.0481 L1147.4695 480.0481 Z" stroke="none" clip-path="url(#clipPath2)"/>
    </g>
  </g>
</svg>
